<mxfile host="app.diagrams.net" modified="2023-01-30T05:55:00.879Z" agent="5.0 (X11; Linux x86_64) AppleWebKit/537.36 (KHTML, like Gecko) Chrome/109.0.0.0 Safari/537.36" etag="14jPzcJ7H4s0HtW6eSDA" version="20.8.13" type="github">
  <diagram name="Page-1" id="5f0bae14-7c28-e335-631c-24af17079c00">
    <mxGraphModel dx="2567" dy="798" grid="1" gridSize="10" guides="1" tooltips="1" connect="1" arrows="1" fold="1" page="1" pageScale="1" pageWidth="1100" pageHeight="850" background="none" math="0" shadow="0">
      <root>
        <mxCell id="0" />
        <mxCell id="1" parent="0" />
        <mxCell id="IGgQg_8KnwVarghvvdzZ-7" value="Login" style="rounded=0;whiteSpace=wrap;html=1;fontSize=16;fillColor=#dae8fc;strokeColor=#6c8ebf;" vertex="1" parent="1">
          <mxGeometry x="360" y="10" width="120" height="60" as="geometry" />
        </mxCell>
        <mxCell id="IGgQg_8KnwVarghvvdzZ-30" style="edgeStyle=orthogonalEdgeStyle;rounded=0;orthogonalLoop=1;jettySize=auto;html=1;exitX=0.75;exitY=1;exitDx=0;exitDy=0;entryX=0.186;entryY=-0.05;entryDx=0;entryDy=0;entryPerimeter=0;fontSize=16;" edge="1" parent="1" source="IGgQg_8KnwVarghvvdzZ-8" target="IGgQg_8KnwVarghvvdzZ-13">
          <mxGeometry relative="1" as="geometry">
            <Array as="points">
              <mxPoint x="-20" y="350" />
              <mxPoint x="82" y="350" />
            </Array>
          </mxGeometry>
        </mxCell>
        <mxCell id="IGgQg_8KnwVarghvvdzZ-34" style="edgeStyle=orthogonalEdgeStyle;rounded=0;orthogonalLoop=1;jettySize=auto;html=1;exitX=0.25;exitY=1;exitDx=0;exitDy=0;fontSize=16;" edge="1" parent="1" source="IGgQg_8KnwVarghvvdzZ-8" target="IGgQg_8KnwVarghvvdzZ-15">
          <mxGeometry relative="1" as="geometry" />
        </mxCell>
        <mxCell id="IGgQg_8KnwVarghvvdzZ-36" style="edgeStyle=orthogonalEdgeStyle;rounded=0;orthogonalLoop=1;jettySize=auto;html=1;exitX=0.5;exitY=1;exitDx=0;exitDy=0;entryX=0.25;entryY=0;entryDx=0;entryDy=0;fontSize=16;" edge="1" parent="1" source="IGgQg_8KnwVarghvvdzZ-8" target="IGgQg_8KnwVarghvvdzZ-16">
          <mxGeometry relative="1" as="geometry" />
        </mxCell>
        <mxCell id="IGgQg_8KnwVarghvvdzZ-47" style="edgeStyle=orthogonalEdgeStyle;rounded=0;orthogonalLoop=1;jettySize=auto;html=1;exitX=1;exitY=0.5;exitDx=0;exitDy=0;entryX=0;entryY=0.75;entryDx=0;entryDy=0;fontSize=16;" edge="1" parent="1" source="IGgQg_8KnwVarghvvdzZ-8" target="IGgQg_8KnwVarghvvdzZ-14">
          <mxGeometry relative="1" as="geometry" />
        </mxCell>
        <mxCell id="IGgQg_8KnwVarghvvdzZ-8" value="Student" style="rounded=0;whiteSpace=wrap;html=1;fontSize=16;fillColor=#dae8fc;strokeColor=#6c8ebf;" vertex="1" parent="1">
          <mxGeometry x="-110" y="230" width="120" height="60" as="geometry" />
        </mxCell>
        <mxCell id="IGgQg_8KnwVarghvvdzZ-37" style="edgeStyle=orthogonalEdgeStyle;rounded=0;orthogonalLoop=1;jettySize=auto;html=1;exitX=0.5;exitY=1;exitDx=0;exitDy=0;fontSize=16;" edge="1" parent="1" source="IGgQg_8KnwVarghvvdzZ-9" target="IGgQg_8KnwVarghvvdzZ-13">
          <mxGeometry relative="1" as="geometry" />
        </mxCell>
        <mxCell id="IGgQg_8KnwVarghvvdzZ-49" style="edgeStyle=orthogonalEdgeStyle;rounded=0;orthogonalLoop=1;jettySize=auto;html=1;exitX=0.5;exitY=1;exitDx=0;exitDy=0;entryX=0.25;entryY=0;entryDx=0;entryDy=0;fontSize=16;" edge="1" parent="1" source="IGgQg_8KnwVarghvvdzZ-9" target="IGgQg_8KnwVarghvvdzZ-14">
          <mxGeometry relative="1" as="geometry">
            <Array as="points">
              <mxPoint x="360" y="460" />
              <mxPoint x="480" y="460" />
            </Array>
          </mxGeometry>
        </mxCell>
        <mxCell id="IGgQg_8KnwVarghvvdzZ-9" value="Teacher" style="rounded=0;whiteSpace=wrap;html=1;fontSize=16;fillColor=#dae8fc;strokeColor=#6c8ebf;" vertex="1" parent="1">
          <mxGeometry x="300" y="240" width="120" height="60" as="geometry" />
        </mxCell>
        <mxCell id="IGgQg_8KnwVarghvvdzZ-39" style="edgeStyle=orthogonalEdgeStyle;rounded=0;orthogonalLoop=1;jettySize=auto;html=1;exitX=0.5;exitY=1;exitDx=0;exitDy=0;entryX=0.5;entryY=0;entryDx=0;entryDy=0;fontSize=16;" edge="1" parent="1" source="IGgQg_8KnwVarghvvdzZ-10" target="IGgQg_8KnwVarghvvdzZ-14">
          <mxGeometry relative="1" as="geometry" />
        </mxCell>
        <mxCell id="IGgQg_8KnwVarghvvdzZ-44" style="edgeStyle=orthogonalEdgeStyle;rounded=0;orthogonalLoop=1;jettySize=auto;html=1;exitX=0.75;exitY=1;exitDx=0;exitDy=0;entryX=0.5;entryY=1;entryDx=0;entryDy=0;fontSize=16;" edge="1" parent="1" source="IGgQg_8KnwVarghvvdzZ-10" target="IGgQg_8KnwVarghvvdzZ-15">
          <mxGeometry relative="1" as="geometry">
            <Array as="points">
              <mxPoint x="680" y="810" />
              <mxPoint x="-170" y="810" />
            </Array>
          </mxGeometry>
        </mxCell>
        <mxCell id="IGgQg_8KnwVarghvvdzZ-10" value="Director" style="rounded=0;whiteSpace=wrap;html=1;fontSize=16;fillColor=#dae8fc;strokeColor=#6c8ebf;" vertex="1" parent="1">
          <mxGeometry x="580" y="230" width="120" height="60" as="geometry" />
        </mxCell>
        <mxCell id="IGgQg_8KnwVarghvvdzZ-11" value="Auth" style="rounded=1;whiteSpace=wrap;html=1;fontSize=16;" vertex="1" parent="1">
          <mxGeometry x="360" y="100" width="120" height="60" as="geometry" />
        </mxCell>
        <mxCell id="IGgQg_8KnwVarghvvdzZ-35" style="edgeStyle=orthogonalEdgeStyle;rounded=0;orthogonalLoop=1;jettySize=auto;html=1;exitX=0.5;exitY=1;exitDx=0;exitDy=0;entryX=0.5;entryY=0;entryDx=0;entryDy=0;fontSize=16;" edge="1" parent="1" source="IGgQg_8KnwVarghvvdzZ-12" target="IGgQg_8KnwVarghvvdzZ-16">
          <mxGeometry relative="1" as="geometry" />
        </mxCell>
        <mxCell id="IGgQg_8KnwVarghvvdzZ-12" value="Office Staff" style="rounded=0;whiteSpace=wrap;html=1;fontSize=16;fillColor=#dae8fc;strokeColor=#6c8ebf;" vertex="1" parent="1">
          <mxGeometry x="890" y="240" width="120" height="60" as="geometry" />
        </mxCell>
        <mxCell id="IGgQg_8KnwVarghvvdzZ-13" value="Courses" style="rounded=1;whiteSpace=wrap;html=1;fontSize=16;" vertex="1" parent="1">
          <mxGeometry x="60" y="620" width="120" height="60" as="geometry" />
        </mxCell>
        <mxCell id="IGgQg_8KnwVarghvvdzZ-14" value="Results" style="rounded=1;whiteSpace=wrap;html=1;fontSize=16;" vertex="1" parent="1">
          <mxGeometry x="450" y="600" width="120" height="60" as="geometry" />
        </mxCell>
        <mxCell id="IGgQg_8KnwVarghvvdzZ-15" value="Payment" style="rounded=1;whiteSpace=wrap;html=1;fontSize=16;" vertex="1" parent="1">
          <mxGeometry x="-230" y="720" width="120" height="60" as="geometry" />
        </mxCell>
        <mxCell id="IGgQg_8KnwVarghvvdzZ-16" value="Notices" style="rounded=1;whiteSpace=wrap;html=1;fontSize=16;" vertex="1" parent="1">
          <mxGeometry x="890" y="680" width="120" height="60" as="geometry" />
        </mxCell>
        <mxCell id="IGgQg_8KnwVarghvvdzZ-28" value="Views" style="text;html=1;align=center;verticalAlign=middle;resizable=0;points=[];autosize=1;strokeColor=none;fillColor=none;fontSize=16;" vertex="1" parent="1">
          <mxGeometry x="110" y="225" width="70" height="30" as="geometry" />
        </mxCell>
        <mxCell id="IGgQg_8KnwVarghvvdzZ-31" value="Takes" style="text;html=1;align=center;verticalAlign=middle;resizable=0;points=[];autosize=1;strokeColor=none;fillColor=none;fontSize=16;" vertex="1" parent="1">
          <mxGeometry x="-10" y="320" width="70" height="30" as="geometry" />
        </mxCell>
        <mxCell id="IGgQg_8KnwVarghvvdzZ-40" value="Approves" style="text;html=1;align=center;verticalAlign=middle;resizable=0;points=[];autosize=1;strokeColor=none;fillColor=none;fontSize=16;" vertex="1" parent="1">
          <mxGeometry x="530" y="410" width="90" height="30" as="geometry" />
        </mxCell>
        <mxCell id="IGgQg_8KnwVarghvvdzZ-41" value="Post" style="text;html=1;align=center;verticalAlign=middle;resizable=0;points=[];autosize=1;strokeColor=none;fillColor=none;fontSize=16;" vertex="1" parent="1">
          <mxGeometry x="950" y="455" width="60" height="30" as="geometry" />
        </mxCell>
        <mxCell id="IGgQg_8KnwVarghvvdzZ-42" value="Views" style="text;html=1;align=center;verticalAlign=middle;resizable=0;points=[];autosize=1;strokeColor=none;fillColor=none;fontSize=16;" vertex="1" parent="1">
          <mxGeometry x="-30" y="440" width="70" height="30" as="geometry" />
        </mxCell>
        <mxCell id="IGgQg_8KnwVarghvvdzZ-43" value="Makes" style="text;html=1;align=center;verticalAlign=middle;resizable=0;points=[];autosize=1;strokeColor=none;fillColor=none;fontSize=16;" vertex="1" parent="1">
          <mxGeometry x="-150" y="410" width="70" height="30" as="geometry" />
        </mxCell>
        <mxCell id="IGgQg_8KnwVarghvvdzZ-48" value="Handles" style="text;html=1;align=center;verticalAlign=middle;resizable=0;points=[];autosize=1;strokeColor=none;fillColor=none;fontSize=16;" vertex="1" parent="1">
          <mxGeometry x="680" y="395" width="80" height="30" as="geometry" />
        </mxCell>
        <mxCell id="IGgQg_8KnwVarghvvdzZ-50" value="Create/View/Update" style="text;html=1;align=center;verticalAlign=middle;resizable=0;points=[];autosize=1;strokeColor=none;fillColor=none;fontSize=16;" vertex="1" parent="1">
          <mxGeometry x="355" y="435" width="170" height="30" as="geometry" />
        </mxCell>
        <mxCell id="IGgQg_8KnwVarghvvdzZ-51" value="Handles" style="text;html=1;align=center;verticalAlign=middle;resizable=0;points=[];autosize=1;strokeColor=none;fillColor=none;fontSize=16;" vertex="1" parent="1">
          <mxGeometry x="240" y="425" width="80" height="30" as="geometry" />
        </mxCell>
      </root>
    </mxGraphModel>
  </diagram>
</mxfile>
